<svg width="90" height="28" viewBox="0 0 90 28" fill="none" xmlns="http://www.w3.org/2000/svg">
<g clip-path="url(#clip0_23_4680)">
<path fill-rule="evenodd" clip-rule="evenodd" d="M0.349609 14.1146L22.3534 27.65C22.8407 24.3767 19.7734 22.4447 19.7447 22.1614C19.7113 21.7992 22.1867 20.8961 22.3692 18.4177C22.6777 14.2806 16.9516 14.0174 16.7552 17.1111C16.6505 18.7285 18.47 18.7652 18.5265 17.564C18.6052 15.9558 20.2894 16.2593 20.5507 18.0692C20.8147 19.882 18.6803 20.6494 17.8271 20.6256C16.4986 20.5852 14.731 19.5143 14.5708 17.9317C14.3493 15.7522 16.8377 15.4707 13.6277 15.7394C12.3669 15.8439 11.4469 15.1773 10.8615 14.1045C11.5887 13.1069 12.3669 12.4137 13.6277 12.5201C16.8377 12.7906 14.3493 12.5064 14.5708 10.3058C14.731 8.70944 16.4986 7.62656 17.8271 7.58714C18.6803 7.56146 20.8147 8.33625 20.5507 10.1673C20.2894 11.9929 18.6052 12.2991 18.5265 10.6771C18.47 9.46314 16.6505 9.50164 16.7552 11.1347C16.9516 14.2558 22.6777 13.9917 22.3692 9.81523C22.1895 7.36341 19.8049 6.43734 19.7456 6.05682C19.7151 5.85602 22.8305 3.7352 22.3534 0.495767" fill="#B9966E"/>
<path d="M44.4393 19.629V12.4207C44.4393 10.3694 43.059 9.08499 40.8544 9.08499C39.3207 9.08499 38.0746 9.64094 37.4228 10.1969C36.8477 9.6026 35.7549 9.08499 34.1254 9.08499C32.7259 9.08499 31.4223 9.39172 30.4062 9.81348V19.629H32.4959V11.0788C32.9368 10.887 33.5503 10.772 34.2596 10.772C35.544 10.772 36.3684 11.4047 36.3684 12.4399V19.629H38.4772V11.4622C38.8989 11.0212 39.5699 10.772 40.3751 10.772C41.5637 10.772 42.3497 11.443 42.3497 12.6316V19.629H44.4393Z" fill="#282D3E"/>
<path d="M54.6998 19.1113V12.5933C54.6998 10.0435 53.2044 9.08499 50.7314 9.08499C49.3511 9.08499 47.9516 9.44923 47.1273 9.81348L47.6641 11.2513C48.3542 10.9254 49.5428 10.6187 50.5205 10.6187C51.8433 10.6187 52.706 11.0788 52.706 12.3824V13.0342C49.5811 13.2067 46.5138 13.7243 46.5138 16.6C46.5138 18.6321 48.0091 19.8398 50.9806 19.8398C52.4376 19.8398 53.9521 19.5139 54.6998 19.1113ZM52.706 18.0569C52.3801 18.2103 51.5941 18.3253 50.9231 18.3253C49.3319 18.3253 48.4884 17.6544 48.4884 16.5616C48.4884 14.7212 50.5972 14.5487 52.706 14.4337V18.0569Z" fill="#282D3E"/>
<path d="M62.4478 9.16167C62.1411 9.10416 61.7385 9.08499 61.2784 9.08499C59.7447 9.08499 58.2685 9.39172 57.2717 9.81348V19.629H59.3613V11.0596C59.7639 10.887 60.3965 10.7912 60.9908 10.7912C61.3742 10.7912 61.7385 10.8295 62.0452 10.9062L62.4478 9.16167Z" fill="#282D3E"/>
<path d="M73.0355 19.629L68.607 14.1653L72.7863 9.29586H70.3516L66.3832 13.9352H66.3449V4.57983H64.2744V19.629H66.3449V14.3761H66.3832L70.62 19.629H73.0355Z" fill="#282D3E"/>
<path d="M82.6525 13.6285C82.6525 10.8487 81.0613 9.08499 78.3774 9.08499C75.4826 9.08499 73.7189 11.2896 73.7189 14.4528C73.7189 17.7502 75.5401 19.8398 78.7992 19.8398C80.2178 19.8398 81.5981 19.5331 82.4033 19.1113L81.7898 17.5393C81.0805 17.9227 79.9686 18.172 78.9334 18.172C77.1888 18.172 75.9811 17.2326 75.7702 15.373L82.6334 14.4145C82.6525 14.1461 82.6525 13.8777 82.6525 13.6285ZM80.6396 13.3026L75.636 13.9927C75.6743 11.8456 76.7287 10.6187 78.3391 10.6187C79.7194 10.6187 80.6204 11.5005 80.6396 13.3026Z" fill="#282D3E"/>
<path d="M89.5489 19.5331V17.7886C89.3764 17.8652 89.0888 17.9227 88.8396 17.9227C88.0728 17.9227 87.4593 17.5585 87.4593 16.6191V10.8679H89.5489V9.29586H87.4593V6.26687L85.408 6.89951V9.29586H84.0086V10.8679H85.408V16.7342C85.408 18.7471 86.4241 19.7632 88.2453 19.7632C88.7821 19.7632 89.2997 19.6481 89.5489 19.5331Z" fill="#282D3E"/>
</g>
<defs>
<clipPath id="clip0_23_4680">
<rect width="90" height="28" fill="white"/>
</clipPath>
</defs>
</svg>
