<svg width="234" height="36" viewBox="0 0 234 36" fill="none" xmlns="http://www.w3.org/2000/svg">
<g clip-path="url(#clip0_3576_682)">
<path fill-rule="evenodd" clip-rule="evenodd" d="M0 18.1471L28.2906 35.5498C28.9171 31.3412 24.9735 28.8573 24.9365 28.493C24.8937 28.0274 28.0762 26.8662 28.3109 23.6796C28.7075 18.3605 21.3454 18.0222 21.0929 21.9997C20.9583 24.0793 23.2976 24.1264 23.3703 22.5821C23.4715 20.5143 25.6369 20.9045 25.9728 23.2317C26.3122 25.5623 23.568 26.549 22.471 26.5184C20.763 26.4665 18.4904 25.0896 18.2843 23.0548C17.9997 20.2526 21.1989 19.8907 17.0718 20.2361C15.4507 20.3705 14.268 19.5135 13.5152 18.1342C14.4502 16.8515 15.4507 15.9603 17.0718 16.0971C21.1989 16.4448 17.9997 16.0794 18.2843 13.2501C18.4904 11.1976 20.763 9.80536 22.471 9.75467C23.568 9.72166 26.3122 10.7178 25.9728 13.072C25.6369 15.4192 23.4715 15.8129 23.3703 13.7275C23.2976 12.1667 20.9583 12.2162 21.0929 14.3158C21.3454 18.3287 28.7075 17.9892 28.3109 12.6194C28.0798 9.46702 25.014 8.27635 24.9377 7.78712C24.8984 7.52894 28.904 4.80218 28.2906 0.637191" fill="#B9966E"/>
<path d="M141.038 23.1585C140.57 23.3896 139.869 23.544 139.141 23.544C137.296 23.544 136.204 22.773 136.204 20.9717C136.204 18.4512 138.049 17.8075 141.038 17.4468V23.1585ZM144.001 24.2902V15.6973C144.001 12.1218 141.714 10.9134 138.829 10.9134C136.619 10.9134 134.93 11.5312 134.02 11.9674L134.748 13.7687C135.606 13.3573 136.905 12.9199 138.257 12.9199C139.895 12.9199 141.038 13.408 141.038 15.2093V15.9555C136.775 16.367 133.215 17.4221 133.215 21.0742C133.215 23.7503 135.111 25.2935 138.932 25.2935C141.117 25.2935 142.883 24.882 144.001 24.2902ZM130.511 25.0365V15.1574C130.511 12.9199 129.133 10.9134 124.949 10.9134C122.584 10.9134 120.791 11.2989 119.465 11.9167V25.0365H122.636V13.2795C123.234 13.0484 123.779 12.894 124.819 12.894C126.822 12.894 127.341 14.0776 127.341 15.2093V25.0365H130.511ZM113.123 23.1585C112.656 23.3896 111.954 23.544 111.227 23.544C109.38 23.544 108.289 22.773 108.289 20.9717C108.289 18.4512 110.134 17.8075 113.123 17.4468V23.1585ZM116.087 24.2902V15.6973C116.087 12.1218 113.799 10.9134 110.915 10.9134C108.705 10.9134 107.016 11.5312 106.106 11.9674L106.834 13.7687C107.692 13.3573 108.991 12.9199 110.343 12.9199C111.981 12.9199 113.123 13.408 113.123 15.2093V15.9555C108.861 16.367 105.3 17.4221 105.3 21.0742C105.3 23.7503 107.197 25.2935 111.019 25.2935C113.201 25.2935 114.969 24.882 116.087 24.2902ZM103.325 24.908V22.9522C103.065 23.03 102.857 23.0807 102.571 23.0807C101.48 23.0807 101.038 22.3604 101.038 21.2794V13.1769H103.325V11.1704H101.038V7.23415L97.8663 8.10888V11.1704H96.3071V13.1769H97.8663V21.435C97.8663 23.3636 98.9585 25.1909 101.713 25.1909C102.467 25.1909 103.039 25.0365 103.325 24.908ZM94.4097 21.0483C94.4097 19.4285 93.7868 18.0386 91.0568 16.9588C89.836 16.4695 88.9784 15.9037 88.9784 14.7719C88.9784 13.7946 89.6799 12.9458 90.9782 12.9458C91.9668 12.9458 92.7982 13.3832 93.2139 13.7168L93.9941 11.8907C93.0841 11.2989 91.9156 10.9134 90.3553 10.9134C87.6777 10.9134 85.9114 12.7136 85.9114 14.9264C85.9114 16.367 86.4569 17.8075 89.1082 18.8108C90.5375 19.3507 91.1617 19.9166 91.1617 21.1002C91.1617 22.2319 90.3029 23.0559 89.0046 23.0559C87.86 23.0559 86.8988 22.6704 86.3795 22.2578L85.5469 24.2643C86.3795 24.8302 87.7825 25.2675 89.4203 25.2675C92.4861 25.2675 94.4097 23.3129 94.4097 21.0483ZM80.0631 23.1585C79.595 23.3896 78.8935 23.544 78.1657 23.544C76.3208 23.544 75.2285 22.773 75.2285 20.9717C75.2285 18.4512 77.0735 17.8075 80.0631 17.4468V23.1585ZM83.0254 24.2902V15.6973C83.0254 12.1218 80.7385 10.9134 77.8537 10.9134C75.6442 10.9134 73.9553 11.5312 73.0453 11.9674L73.773 13.7687C74.6306 13.3573 75.9301 12.9199 77.282 12.9199C78.9185 12.9199 80.0631 13.408 80.0631 15.2093V15.9555C75.8002 16.367 72.2389 17.4221 72.2389 21.0742C72.2389 23.7503 74.1363 25.2935 77.9573 25.2935C80.1418 25.2935 81.9081 24.882 83.0254 24.2902ZM63.7667 10.9394C60.2316 10.8356 58.464 11.2211 57.0085 11.9167V25.0365H60.1792V13.3313C60.9081 12.9199 62.0766 12.868 63.1426 13.2288L63.7667 10.9394ZM53.5258 25.0365V11.1704H50.3551V25.0365H53.5258ZM53.6818 7.23415C53.6818 6.36059 52.9279 5.66505 51.9405 5.66505C50.9792 5.66505 50.1991 6.36059 50.1991 7.23415C50.1991 8.08294 50.9792 8.77848 51.9405 8.77848C52.9279 8.77848 53.6818 8.08294 53.6818 7.23415ZM43.909 23.1585C43.4409 23.3896 42.7393 23.544 42.0116 23.544C40.1666 23.544 39.0744 22.773 39.0744 20.9717C39.0744 18.4512 40.9194 17.8075 43.909 17.4468V23.1585ZM46.8712 24.2902V15.6973C46.8712 12.1218 44.5855 10.9134 41.6995 10.9134C39.4901 10.9134 37.8011 11.5312 36.8911 11.9674L37.6189 13.7687C38.4764 13.3573 39.7771 12.9199 41.1278 12.9199C42.7655 12.9199 43.909 13.408 43.909 15.2093V15.9555C39.6461 16.367 36.0859 17.4221 36.0859 21.0742C36.0859 23.7503 37.9833 25.2935 41.8043 25.2935C43.9876 25.2935 45.754 24.882 46.8712 24.2902Z" fill="#282D3E"/>
<path d="M176.11 24.821V15.504C176.11 12.9159 174.31 11.2645 171.574 11.2645C169.627 11.2645 168.05 12.0286 167.236 12.7927C166.521 11.9547 165.092 11.2645 163.021 11.2645C161.296 11.2645 159.718 11.6589 158.437 12.2011V24.821H160.507V13.4089C161.173 13.1378 162.085 12.9406 163.145 12.9406C164.993 12.9406 166.25 13.8526 166.25 15.3561V24.821H168.296V14.0744C168.937 13.3843 169.947 12.9406 171.18 12.9406C172.856 12.9406 174.064 13.9512 174.064 15.6765V24.821H176.11Z" fill="#6A7186"/>
<path d="M189.131 24.1555V15.6026C189.131 12.4476 187.184 11.2645 184.201 11.2645C182.55 11.2645 180.874 11.7328 179.863 12.2011L180.405 13.6554C181.268 13.2364 182.796 12.842 184.029 12.842C185.877 12.842 187.184 13.4582 187.184 15.4301V16.4406C183.166 16.6625 179.074 17.2294 179.074 21.0252C179.074 23.5393 180.898 25.0922 184.546 25.0922C186.296 25.0922 188.194 24.6731 189.131 24.1555ZM187.184 23.1203C186.715 23.3421 185.507 23.5393 184.497 23.5393C182.18 23.5393 181.021 22.5287 181.021 20.9759C181.021 18.2153 184.226 18.0428 187.184 17.8702V23.1203Z" fill="#6A7186"/>
<path d="M198.899 11.3631C198.53 11.3138 198.086 11.2645 197.593 11.2645C195.769 11.2645 193.945 11.6589 192.737 12.2011V24.821H194.808V13.4089C195.424 13.1378 196.41 12.9899 197.322 12.9899C197.741 12.9899 198.16 13.0145 198.505 13.0885L198.899 11.3631Z" fill="#6A7186"/>
<path d="M212.124 24.821L205.814 17.8209L211.779 11.5356H209.314L203.571 17.6238H203.522V5.47217H201.501V24.821H203.522V17.9935H203.571L209.684 24.821H212.124Z" fill="#6A7186"/>
<path d="M224.35 16.9582C224.35 13.4089 222.328 11.2645 219.05 11.2645C215.452 11.2645 213.258 14.0744 213.258 18.166C213.258 22.5287 215.649 25.0922 219.617 25.0922C221.367 25.0922 223.019 24.6978 223.98 24.1555L223.339 22.6027C222.452 23.0957 221.047 23.4161 219.716 23.4161C217.177 23.4161 215.476 21.9865 215.254 19.1519L224.325 17.8456C224.35 17.5252 224.35 17.2294 224.35 16.9582ZM222.378 16.6871L215.131 17.7223C215.18 14.7153 216.684 12.842 219.026 12.842C221.022 12.842 222.353 14.0744 222.378 16.6871Z" fill="#6A7186"/>
<path d="M233.071 24.7471V23.0217C232.874 23.0957 232.529 23.145 232.208 23.145C231.124 23.145 230.212 22.6273 230.212 21.2717V13.0885H233.071V11.5356H230.212V7.66586L228.215 8.33136V11.5356H226.293V13.0885H228.215V21.3703C228.215 23.7858 229.546 24.9689 231.715 24.9689C232.282 24.9689 232.8 24.8703 233.071 24.7471Z" fill="#6A7186"/>
</g>
<defs>
<clipPath id="clip0_3576_682">
<rect width="233.1" height="36" fill="white"/>
</clipPath>
</defs>
</svg>
