<svg width="24" height="24" viewBox="0 0 24 24" fill="none" xmlns="http://www.w3.org/2000/svg">
    <mask id="mask0_3614_2320" style="mask-type:alpha" maskUnits="userSpaceOnUse" x="0" y="0" width="24" height="24">
        <rect width="24" height="24" fill="#D9D9D9"/>
    </mask>
    <g mask="url(#mask0_3614_2320)">
        <path d="M2.99998 20C2.51664 20 2.19998 19.7707 2.04998 19.312C1.89998 18.854 2.01664 18.4833 2.39998 18.2L11 11.75V10C11 9.71667 11.0916 9.479 11.275 9.287C11.4583 9.09567 11.6916 9 11.975 9C12.4083 9.01667 12.7706 8.879 13.062 8.587C13.354 8.29567 13.5 7.93333 13.5 7.5C13.5 7.08333 13.3583 6.72933 13.075 6.438C12.7916 6.146 12.4416 6 12.025 6C11.725 6 11.446 6.08733 11.188 6.262C10.9293 6.43733 10.7416 6.66667 10.625 6.95C10.5416 7.13333 10.4206 7.27067 10.262 7.362C10.104 7.454 9.92498 7.5 9.72498 7.5C9.35831 7.5 9.07898 7.34567 8.88698 7.037C8.69564 6.729 8.67498 6.40833 8.82498 6.075C9.10831 5.44167 9.53331 4.93733 10.1 4.562C10.6666 4.18733 11.3 4 12 4C12.9666 4 13.7916 4.33333 14.475 5C15.1583 5.66667 15.5 6.48333 15.5 7.45C15.5 8.25 15.2666 8.95833 14.8 9.575C14.3333 10.1917 13.7333 10.6167 13 10.85V11.75L21.6 18.2C21.9833 18.4833 22.1 18.854 21.95 19.312C21.8 19.7707 21.4833 20 21 20H2.99998ZM5.99998 18H18L12 13.5L5.99998 18Z" fill="#282D3E"/>
    </g>
</svg>
