<svg width="24" height="24" viewBox="0 0 24 24" fill="none" xmlns="http://www.w3.org/2000/svg">
    <path fill-rule="evenodd" clip-rule="evenodd" d="M18.2887 4.01058C18.0951 3.97907 17.83 3.9965 17.4948 4.33172L14.3128 7.5137C14.0319 7.79464 13.6113 7.88262 13.2413 7.73784L5.71863 4.79418L4.55823 5.95459L10.2813 9.87038C10.5268 10.0384 10.6848 10.3069 10.7123 10.6031C10.7399 10.8994 10.6341 11.1924 10.4237 11.4028L7.94885 13.8777C7.76132 14.0652 7.50696 14.1706 7.24175 14.1706H5.53464L4.92469 14.7805L7.15131 15.3878C7.49292 15.4809 7.75979 15.7478 7.85296 16.0894L8.46022 18.316L9.07017 17.7061V15.999C9.07017 15.7338 9.17553 15.4794 9.36307 15.2919L11.8379 12.817C12.0483 12.6067 12.3414 12.5009 12.6376 12.5284C12.9338 12.5559 13.2024 12.7139 13.3704 12.9594L17.2861 18.6825L18.4466 17.5221L15.5029 9.99942C15.3581 9.62944 15.4461 9.20885 15.727 8.92792L18.909 5.74594C19.2802 5.37478 19.2908 5.11824 19.2707 4.97197C19.2424 4.76645 19.1087 4.5314 18.909 4.33172C18.7865 4.20918 18.5443 4.05219 18.2887 4.01058ZM18.6101 2.03657C19.368 2.15995 19.9744 2.56865 20.3232 2.91751C20.7128 3.30709 21.1448 3.92057 21.252 4.6991C21.3674 5.53689 21.0834 6.39994 20.3232 7.16015L17.6037 9.87967L20.5474 17.4024C20.6921 17.7723 20.6042 18.1929 20.3232 18.4739L17.8483 20.9487C17.638 21.1591 17.3449 21.2649 17.0487 21.2373C16.7525 21.2098 16.4839 21.0518 16.3159 20.8063L12.4001 15.0832L11.0702 16.4132V18.1203C11.0702 18.3855 10.9648 18.6399 10.7773 18.8274L8.65596 20.9487C8.4039 21.2008 8.03672 21.2996 7.69219 21.2081C7.34766 21.1166 7.07788 20.8487 6.98409 20.5047L6.07378 17.167L2.73599 16.2566C2.39208 16.1629 2.1241 15.8931 2.03261 15.5485C1.94111 15.204 2.03994 14.8368 2.292 14.5848L4.41332 12.4635C4.60086 12.2759 4.85521 12.1706 5.12043 12.1706H6.82753L8.1575 10.8406L2.43442 6.9248C2.18891 6.75681 2.03093 6.48824 2.0034 6.19203C1.97587 5.89582 2.08165 5.60274 2.292 5.39238L4.76687 2.91751C5.04781 2.63658 5.4684 2.5486 5.83838 2.69337L13.3611 5.63703L16.0806 2.91751C16.8767 2.12137 17.7901 1.90309 18.6101 2.03657Z" fill="#282D3E"/>
</svg>
