<svg width="24" height="24" viewBox="0 0 24 24" fill="none" xmlns="http://www.w3.org/2000/svg">
    <mask id="mask0_3614_2304" style="mask-type:alpha" maskUnits="userSpaceOnUse" x="0" y="0" width="24" height="24">
        <rect width="24" height="24" fill="#D9D9D9"/>
    </mask>
    <g mask="url(#mask0_3614_2304)">
        <path d="M18.9 20.3001L13.25 14.6501L14.65 13.2501L20.3 18.9001C20.4833 19.0834 20.575 19.3168 20.575 19.6001C20.575 19.8834 20.4833 20.1168 20.3 20.3001C20.1167 20.4834 19.8833 20.5751 19.6 20.5751C19.3167 20.5751 19.0833 20.4834 18.9 20.3001ZM4.525 18.5001C4.00833 17.6668 3.625 16.7958 3.375 15.8871C3.125 14.9791 3 14.0501 3 13.1001C3 11.8001 3.24167 10.5334 3.725 9.3001C4.20833 8.06676 4.95 6.9501 5.95 5.9501C6.95 4.9501 8.07067 4.2041 9.312 3.7121C10.554 3.22076 11.825 2.9751 13.125 2.9751C14.075 2.9751 15.0043 3.1041 15.913 3.3621C16.821 3.62076 17.6833 4.00843 18.5 4.5251C19.0167 4.85843 19.2917 5.33343 19.325 5.9501C19.3583 6.56676 19.1417 7.10843 18.675 7.5751L7.575 18.6751C7.10833 19.1418 6.56267 19.3584 5.938 19.3251C5.31267 19.2918 4.84167 19.0168 4.525 18.5001ZM6.15 17.2501L7.5 15.9001C7.23333 15.5501 6.97933 15.1918 6.738 14.8251C6.496 14.4584 6.275 14.0918 6.075 13.7251C5.875 13.3584 5.7 12.9918 5.55 12.6251C5.4 12.2584 5.26667 11.9001 5.15 11.5501C4.96667 12.5334 4.95433 13.5168 5.113 14.5001C5.271 15.4834 5.61667 16.4001 6.15 17.2501ZM8.95 14.5001L14.5 8.9001C13.7833 8.3501 13.0627 7.9041 12.338 7.5621C11.6127 7.22076 10.9333 6.98776 10.3 6.8631C9.66667 6.73776 9.096 6.71676 8.588 6.8001C8.07933 6.88343 7.68333 7.06676 7.4 7.3501C7.11667 7.6501 6.93333 8.0541 6.85 8.5621C6.76667 9.07076 6.78767 9.64576 6.913 10.2871C7.03767 10.9291 7.271 11.6084 7.613 12.3251C7.95433 13.0418 8.4 13.7668 8.95 14.5001ZM17.3 6.1501C16.4167 5.61676 15.4833 5.26676 14.5 5.1001C13.5167 4.93343 12.5333 4.9501 11.55 5.1501C11.9167 5.26676 12.2833 5.4001 12.65 5.5501C13.0167 5.7001 13.3833 5.87076 13.75 6.0621C14.1167 6.2541 14.4793 6.47076 14.838 6.7121C15.196 6.9541 15.55 7.21676 15.9 7.5001L17.3 6.1501Z" fill="#282D3E"/>
    </g>
</svg>
