<svg width="24" height="25" viewBox="0 0 24 25" fill="none" xmlns="http://www.w3.org/2000/svg">
<mask id="mask0_3576_706" style="mask-type:alpha" maskUnits="userSpaceOnUse" x="0" y="0" width="24" height="25">
<rect y="0.878906" width="24" height="24" fill="currentColor"/>
</mask>
<g mask="url(#mask0_3576_706)">
<path d="M19 22.8789H5C4.45 22.8789 3.979 22.6832 3.587 22.2919C3.19567 21.8999 3 21.4289 3 20.8789V8.87891C3 8.32891 3.19567 7.85824 3.587 7.46691C3.979 7.07491 4.45 6.87891 5 6.87891H7C7 5.49557 7.48767 4.31624 8.463 3.34091C9.43767 2.36624 10.6167 1.87891 12 1.87891C13.3833 1.87891 14.5627 2.36624 15.538 3.34091C16.5127 4.31624 17 5.49557 17 6.87891H19C19.55 6.87891 20.021 7.07491 20.413 7.46691C20.8043 7.85824 21 8.32891 21 8.87891V20.8789C21 21.4289 20.8043 21.8999 20.413 22.2919C20.021 22.6832 19.55 22.8789 19 22.8789ZM9 6.87891H15C15 6.04557 14.7083 5.33724 14.125 4.75391C13.5417 4.17057 12.8333 3.87891 12 3.87891C11.1667 3.87891 10.4583 4.17057 9.875 4.75391C9.29167 5.33724 9 6.04557 9 6.87891ZM12 14.8789C13.2333 14.8789 14.35 14.4706 15.35 13.6539C16.35 12.8372 16.8417 11.9206 16.825 10.9039C16.825 10.6206 16.7333 10.3789 16.55 10.1789C16.3667 9.97891 16.1333 9.87891 15.85 9.87891C15.6167 9.87891 15.4083 9.95391 15.225 10.1039C15.0417 10.2539 14.9083 10.4789 14.825 10.7789C14.6417 11.4122 14.2833 11.9206 13.75 12.3039C13.2167 12.6872 12.6333 12.8789 12 12.8789C11.3667 12.8789 10.7793 12.6872 10.238 12.3039C9.696 11.9206 9.34167 11.4122 9.175 10.7789C9.09167 10.4622 8.96667 10.2329 8.8 10.0909C8.63333 9.94957 8.43333 9.87891 8.2 9.87891C7.91667 9.87891 7.67933 9.97891 7.488 10.1789C7.296 10.3789 7.2 10.6206 7.2 10.9039C7.2 11.9206 7.69167 12.8372 8.675 13.6539C9.65833 14.4706 10.7667 14.8789 12 14.8789Z" fill="currentColor"/>
</g>
</svg>
