<svg width="24" height="24" viewBox="0 0 24 24" fill="none" xmlns="http://www.w3.org/2000/svg">
<path fill-rule="evenodd" clip-rule="evenodd" d="M12 22C17.5228 22 22 17.5228 22 12C22 6.47715 17.5228 2 12 2C6.47715 2 2 6.47715 2 12C2 17.5228 6.47715 22 12 22ZM11.9987 5.89915C13.8259 5.89915 15.3066 7.38025 15.3066 9.20659C15.3066 11.0334 13.8259 12.514 11.9987 12.514C10.1723 12.514 8.69167 11.0334 8.69167 9.20659C8.69167 7.38025 10.1723 5.89915 11.9987 5.89915ZM11.9965 20.2933C10.1741 20.2933 8.50499 19.6297 7.21759 18.5311C6.90398 18.2636 6.72301 17.8714 6.72301 17.4598C6.72301 15.6076 8.22212 14.1252 10.0748 14.1252H13.9234C15.7765 14.1252 17.2699 15.6076 17.2699 17.4598C17.2699 17.8718 17.0899 18.2632 16.7758 18.5307C15.4888 19.6297 13.8193 20.2933 11.9965 20.2933Z" fill="currentColor"/>
</svg>
