<svg width="32" height="32" viewBox="0 0 32 32" fill="none" xmlns="http://www.w3.org/2000/svg">
<rect width="32" height="32" fill="white"/>
<g clip-path="url(#clip0_23_4676)">
<mask id="mask0_23_4676" style="mask-type:alpha" maskUnits="userSpaceOnUse" x="4" y="4" width="24" height="24">
<rect x="4" y="4" width="24" height="24" fill="#D9D9D9"/>
</mask>
<g mask="url(#mask0_23_4676)">
<path d="M8 22C7.71667 22 7.47933 21.904 7.288 21.712C7.096 21.5207 7 21.2833 7 21C7 20.7167 7.096 20.4793 7.288 20.288C7.47933 20.096 7.71667 20 8 20H24C24.2833 20 24.5207 20.096 24.712 20.288C24.904 20.4793 25 20.7167 25 21C25 21.2833 24.904 21.5207 24.712 21.712C24.5207 21.904 24.2833 22 24 22H8ZM8 17C7.71667 17 7.47933 16.904 7.288 16.712C7.096 16.5207 7 16.2833 7 16C7 15.7167 7.096 15.479 7.288 15.287C7.47933 15.0957 7.71667 15 8 15H24C24.2833 15 24.5207 15.0957 24.712 15.287C24.904 15.479 25 15.7167 25 16C25 16.2833 24.904 16.5207 24.712 16.712C24.5207 16.904 24.2833 17 24 17H8ZM8 12C7.71667 12 7.47933 11.9043 7.288 11.713C7.096 11.521 7 11.2833 7 11C7 10.7167 7.096 10.479 7.288 10.287C7.47933 10.0957 7.71667 10 8 10H24C24.2833 10 24.5207 10.0957 24.712 10.287C24.904 10.479 25 10.7167 25 11C25 11.2833 24.904 11.521 24.712 11.713C24.5207 11.9043 24.2833 12 24 12H8Z" fill="#282D3E"/>
</g>
</g>
<defs>
<clipPath id="clip0_23_4676">
<rect width="24" height="24" fill="white" transform="translate(4 4)"/>
</clipPath>
</defs>
</svg>
