<svg width="24" height="24" viewBox="0 0 24 24" fill="none" xmlns="http://www.w3.org/2000/svg">
<mask id="mask0_23_3114" style="mask-type:alpha" maskUnits="userSpaceOnUse" x="0" y="0" width="20" height="20">
<rect width="20" height="20" fill="#D9D9D9"/>
</mask>
<g mask="url(#mask0_23_3114)">
<path d="M8.41504 15.5835C8.56782 15.7363 8.76226 15.8127 8.99837 15.8127C9.23448 15.8127 9.42893 15.7363 9.58171 15.5835L11.9984 13.1669L14.4359 15.6044C14.5886 15.7571 14.7798 15.8299 15.0092 15.8227C15.2381 15.816 15.4289 15.7363 15.5817 15.5835C15.7345 15.4308 15.8109 15.2363 15.8109 15.0002C15.8109 14.7641 15.7345 14.5696 15.5817 14.4169L13.165 12.0002L15.6025 9.5627C15.7553 9.40993 15.8281 9.21881 15.8209 8.98937C15.8142 8.76048 15.7345 8.56965 15.5817 8.41687C15.4289 8.26409 15.2345 8.1877 14.9984 8.1877C14.7623 8.1877 14.5678 8.26409 14.415 8.41687L11.9984 10.8335L9.56087 8.39604C9.40809 8.24326 9.21726 8.1702 8.98837 8.17687C8.75893 8.18409 8.56782 8.26409 8.41504 8.41687C8.26226 8.56965 8.18587 8.76409 8.18587 9.0002C8.18587 9.23631 8.26226 9.43076 8.41504 9.58354L10.8317 12.0002L8.39421 14.4377C8.24143 14.5905 8.16865 14.7813 8.17587 15.0102C8.18254 15.2396 8.26226 15.4308 8.41504 15.5835ZM11.9984 20.3335C10.8456 20.3335 9.76226 20.1146 8.74837 19.6769C7.73448 19.2396 6.85254 18.646 6.10254 17.896C5.35254 17.146 4.75893 16.2641 4.32171 15.2502C3.88393 14.2363 3.66504 13.153 3.66504 12.0002C3.66504 10.8474 3.88393 9.76409 4.32171 8.7502C4.75893 7.73631 5.35254 6.85437 6.10254 6.10437C6.85254 5.35437 7.73448 4.76048 8.74837 4.3227C9.76226 3.88548 10.8456 3.66687 11.9984 3.66687C13.1511 3.66687 14.2345 3.88548 15.2484 4.3227C16.2623 4.76048 17.1442 5.35437 17.8942 6.10437C18.6442 6.85437 19.2378 7.73631 19.675 8.7502C20.1128 9.76409 20.3317 10.8474 20.3317 12.0002C20.3317 13.153 20.1128 14.2363 19.675 15.2502C19.2378 16.2641 18.6442 17.146 17.8942 17.896C17.1442 18.646 16.2623 19.2396 15.2484 19.6769C14.2345 20.1146 13.1511 20.3335 11.9984 20.3335Z" fill="#B5B9C5"/>
</g>
</svg>
