<svg width="20" height="20" viewBox="0 0 20 20" fill="none" xmlns="http://www.w3.org/2000/svg">
<g clip-path="url(#clip0_8_4191)">
<path d="M13.0809 10.9585C13.3258 11.0142 13.5548 11.1249 13.7503 11.2821C13.8073 11.3154 13.8696 11.3499 13.9347 11.386C14.3092 11.5935 14.7775 11.8529 14.8642 12.2513C14.9066 12.48 14.877 12.7162 14.7794 12.9275C14.6132 13.2772 14.3634 13.5809 14.0519 13.8118C13.7403 14.0428 13.3766 14.1938 12.9927 14.2517C12.319 14.3279 11.6371 14.2208 11.0195 13.9418C10.4249 13.7389 9.85579 13.4685 9.32327 13.136C8.26208 12.4816 7.33846 11.628 6.6037 10.6228C6.37761 10.3167 6.16812 9.9988 5.97611 9.67043C5.70998 9.24176 5.50808 8.77665 5.37679 8.28984C5.32509 8.08722 5.2985 7.87905 5.29763 7.66998C5.28466 7.29769 5.35564 6.92724 5.50535 6.5859C5.65506 6.24457 5.87969 5.94106 6.16269 5.69771C6.3257 5.55312 6.52721 5.45863 6.74291 5.42563C6.95861 5.39263 7.17928 5.42255 7.3783 5.51176C7.76417 5.83669 8.04865 6.26491 8.19813 6.74583C8.39148 7.08887 8.48177 7.48009 8.45821 7.87285C8.35213 8.22892 8.15767 8.55258 7.89281 8.8139C7.81715 8.87843 7.76956 8.96971 7.76007 9.06851C7.75058 9.16731 7.77992 9.26592 7.84193 9.3436C8.56884 10.5882 9.69662 11.5514 11.0421 12.0766C11.1169 12.1175 11.2042 12.1297 11.2875 12.1111C11.3707 12.0924 11.4443 12.0441 11.4944 11.9752C11.5688 11.8851 11.6433 11.7667 11.7217 11.642C11.8935 11.3689 12.0845 11.0653 12.3368 10.9609C12.5814 10.9037 12.8359 10.9029 13.0809 10.9585Z" fill="currentColor"/>
<path fill-rule="evenodd" clip-rule="evenodd" d="M1.43611 14.6692L0 20L5.39391 18.5631C7.4923 19.6904 9.92822 20.0258 12.2547 19.5076C14.5811 18.9894 16.6421 17.6524 18.0593 15.742C19.4765 13.8316 20.155 11.476 19.9702 9.10725C19.7854 6.73854 18.7497 4.5157 17.0532 2.84661C15.3567 1.17753 13.1131 0.174169 10.7343 0.0206447C8.35543 -0.132879 6.0008 0.573734 4.10249 2.01082C2.20417 3.4479 0.889507 5.51906 0.399731 7.84424C-0.0900446 10.1694 0.277923 12.5926 1.43611 14.6692ZM5.98758 16.7655L5.65399 16.5683L2.64041 17.3684L3.44328 14.3931L3.23408 14.0494C2.46744 12.8052 2.06228 11.3733 2.06371 9.91325C2.06108 8.15233 2.643 6.44 3.71877 5.04311C4.79454 3.64622 6.30373 2.64323 8.01116 2.19045C9.7186 1.73766 11.5284 1.86052 13.1584 2.53987C14.7885 3.21922 16.1473 4.4169 17.0231 5.94627C17.8988 7.47565 18.2424 9.2508 18.0002 10.9951C17.7581 12.7394 16.9437 14.3549 15.6842 15.5898C14.4246 16.8246 12.7905 17.6096 11.0366 17.8222C9.28271 18.0349 7.50748 17.6633 5.98758 16.7655Z" fill="currentColor"/>
</g>
<defs>
<clipPath id="clip0_8_4191">
<rect width="20" height="20" fill="white"/>
</clipPath>
</defs>
</svg>
