<svg width="20" height="20" viewBox="0 0 20 20" fill="none" xmlns="http://www.w3.org/2000/svg">
<path d="M19.8008 6.00006C19.8008 6.00006 19.6055 4.62115 19.0039 4.01569C18.2422 3.21881 17.3906 3.2149 17 3.16803C14.2031 2.9649 10.0039 2.9649 10.0039 2.9649H9.99609C9.99609 2.9649 5.79688 2.9649 3 3.16803C2.60938 3.2149 1.75781 3.21881 0.996094 4.01569C0.394531 4.62115 0.203125 6.00006 0.203125 6.00006C0.203125 6.00006 0 7.62116 0 9.23834V10.754C0 12.3712 0.199219 13.9922 0.199219 13.9922C0.199219 13.9922 0.394531 15.3712 0.992187 15.9766C1.75391 16.7735 2.75391 16.7462 3.19922 16.8321C4.80078 16.9844 10 17.0313 10 17.0313C10 17.0313 14.2031 17.0235 17 16.8243C17.3906 16.7774 18.2422 16.7735 19.0039 15.9766C19.6055 15.3712 19.8008 13.9922 19.8008 13.9922C19.8008 13.9922 20 12.3751 20 10.754V9.23834C20 7.62116 19.8008 6.00006 19.8008 6.00006ZM7.93359 12.5938V6.97272L13.3359 9.79303L7.93359 12.5938Z" fill="currentColor"/>
</svg>
